# xmcd
#
# Track frame offsets:
#	150
#	13291
#	35839
#	51766
#	63847
#	69789
#	87724
#	121084
#	136143
#	153761
#	177729
#	197794
#
# Disc length: 2865 seconds
#
# Revision: 0
# Processed by: cddbd v1.4PL0 Copyright (c) Steve Scherf et al.
# Submitted via: dBpowerAMP V4.0
#
DISCID=a50b2f0c
DTITLE=Glen Duncan - Glen Duncan
DYEAR=2002
DGENRE=Bluegrass
TTITLE0=Mountain Hornpipe
TTITLE1=Angel's Lullaby
TTITLE2=Duncan's Blues
TTITLE3=Footprints in the Snow
TTITLE4=Gallatin Road
TTITLE5=Lonesome Ridge
TTITLE6=Sally Gooden
TTITLE7=Cross Cut Saw
TTITLE8=The Old Chieftain
TTITLE9=December's Child
TTITLE10=Katy Hill
TTITLE11=Touch of the Master's Hand
EXTD=Glen Duncan
EXTT0=
EXTT1=
EXTT2=
EXTT3=
EXTT4=
EXTT5=
EXTT6=
EXTT7=
EXTT8=
EXTT9=
EXTT10=
EXTT11=
PLAYORDER=
